<svg id="Layer_1" data-name="Layer 1" xmlns="http://www.w3.org/2000/svg" viewBox="0 0 236.39 240.9"><defs><style>.cls-1{fill:#242329;}</style></defs><title>Cersei_black</title><path class="cls-1" d="M240.24,126.25c-33.84-5.17-34.41-11-13.34-32.63-23.21,10.5-24.79,5.11-20.4-12.76-8.46,7.6-10.94,2.73-13.81-2.78-2.91-3.62-6.2-7.88-9.84-11.76-4.85-5.17-10.32-9.69-8.44-14.87-13.79-2.27-20.23-5.2-4.71-26-29.13,16.78-36.3,15.71-48.82-26.82-2.28,42.53-9.45,43.6-36.81,32.7,13.75,14.89,7.31,17.82-2.76,21.23-1.84,4-7.31,8.56-12.16,13.73-3.64,3.88-6.93,8.14-9.9,10.82C56.44,83.59,54,88.46,44.66,78.42c5.23,20.31,3.65,25.7-24.36,11.66,25.87,25.21,25.3,31-16.45,38.32,41.75,4.52,42.32,10.31,18.79,36,25.67-14.48,27.25-9.09,23.45,9.81,7.87-8.63,10.35-3.76,13.26,1.05a95.65,95.65,0,0,0,9.8,12.46c4.85,5.17,10.32,9.69,7.53,16.93,14.7.21,21.14,3.14,15,23.74,19.73-16.61,26.9-15.54,36.4,11.21,5.3-26.75,12.47-27.82,31-16.76-4.88-15.05,1.56-18,10.67-20.77,2.8-4.66,8.27-9.18,13.12-14.35,3.64-3.88,6.93-8.14,10-11.3,2.73-6,5.21-10.84,14.27-3.33-5-17.78-3.41-23.17,20.52-13.57C205.83,138.71,206.4,132.92,240.24,126.25Zm-114.5,66.91A68.3,68.3,0,1,1,194,124.87,68.29,68.29,0,0,1,125.74,193.16Z" transform="translate(-3.85 1.34)"/><path class="cls-1" d="M171.92,125.14c-20.36,7.06-23.26,13.54-12.93,32.08-19.7-9.17-26.18-6.27-32,14.54-8.47-20.81-15-23.71-34-12.54,9.64-20.54,6.74-27-14.94-34.06,21.68-7.26,24.58-13.74,14.66-34.37C112,102.05,118.51,99.15,127,78c5.79,21.18,12.27,24.08,32.25,14.84C148.66,111.42,151.56,117.9,171.92,125.14Z" transform="translate(-3.85 1.34)"/></svg>