<svg id="Layer_1" data-name="Layer 1" xmlns="http://www.w3.org/2000/svg" viewBox="0 0 161.31 208.82"><defs><style>.cls-1{fill:#242329;}</style></defs><title>Jammie_black</title><path class="cls-1" d="M215,25c-6.45,0-12.56.05-18.67,0-21.05-.23-41.8-1.69-60.12-13.27a4.86,4.86,0,0,0-4.07.21c-14,8.47-29.42,12.13-45.85,12.48-10.73.22-21.47,0-32.55,0,0,2.37-.06,3.34,0,4.31Q57.29,76.14,61,123.42c.65,8.24.7,16.79,3.13,24.61,7,22.6,23.61,38.42,43,52,8.26,5.78,16.09,12.1,24.12,18.19l2.65,2c13.09-9.61,26.16-18.55,38.38-28.43a138.63,138.63,0,0,0,19.57-19.94c8.9-10.82,14.55-23.14,15.53-37.16Q211.13,82.29,215,29.86C215.05,28.45,215,27,215,25ZM169.16,75.48l-5.4.69c-2.76.34-5.51.69-8.28,1s-5.59.57-8.39.81c-1.38.1-2.78.09-4.17.1-.73,0-1.29.46-1.27,1v0a16.86,16.86,0,0,1,.1,1.87c0,1.16-.06,2.32-.06,3.47,0,.93.11,1.86.1,2.78s-.15,1.89-.15,2.84c0,1.19.09,2.42.09,3.59s-.08,2.43-.09,3.67V119c0,1.72-.09,3.45-.1,5.18,0,1.46,0,2.92.07,4.38v4.8c0,1.56-.12,3-.15,4.45s.07,3,.07,4.46c0,2.61-.07,5.21-.08,7.82s0,5.42,0,8.13v5.18c0,1,0,1.91-.08,2.86v4.61c0,.93-.07,1.85-.07,2.78s.11,1.86.07,2.78a28.24,28.24,0,0,1-.3,3.06,14.69,14.69,0,0,1-.52,2.23c-.39,1.19-.85,2.42-1.29,3.58-.48,1.31-.88,2.64-1.46,3.93-.71,1.61-1.55,3.16-2.37,4.72a11.75,11.75,0,0,1-1.23,1.89c-.58.69-1.12.67-1.76,0a10.63,10.63,0,0,1-1-1.56c-.81-1.51-1.63-3-2.36-4.54-.48-1-.8-2.07-1.2-3.1s-.78-2-1.11-3c-.25-.77-.44-1.54-.62-2.33a30.92,30.92,0,0,1-.74-3.54,29,29,0,0,1,0-3.36V155.21c0-1,.06-1.89.06-2.84s-.06-1.85,0-2.78.11-1.86.11-2.78c0-1.5,0-3,0-4.49v-6.46c0-2.88,0-5.77,0-8.65,0-2.55,0-5.11,0-7.67,0-1.47.15-3,.16-4.42s-.09-3-.09-4.48c0-1.23.08-2.42.08-3.69V84.34c0-1.94.09-3.89.09-5.85,0-.12-.37-.37-.61-.38-1.66-.16-3.35-.26-5-.4-1.45-.12-2.89-.25-4.33-.42s-3.06-.39-4.58-.6c-2-.28-4-.55-6-.87-1.75-.27-3.49-.6-5.25-.86-1.12-.16-1.54-.36-1.52-1,.1-1.31.15-2.63.2-4v0c.2,0,.4,0,.6,0,2.45,0,4.9,0,7.36.08,1.7,0,3.35.07,5.1.11h6.29c1.3,0,2.56.06,3.84.08s2.72,0,4.08,0c.45,0,.61,0,.65-.41.13-1.3.36-2.59.57-3.88s.49-2.66.69-4,.31-2.64.52-4,.53-2.66.76-4c.33-2.08.66-4.17.94-6.26a1,1,0,0,0-.45-.74c-.51-.35-1.2-.57-1.67-.93a6.1,6.1,0,0,1-2.61-3.81,4.59,4.59,0,0,1,.67-3.39c1.18-2,3.7-3.32,6.64-3.58a17.19,17.19,0,0,1,3.8.24,11.57,11.57,0,0,1,3.35,1.26,7.28,7.28,0,0,1,1.84,1.68,4.28,4.28,0,0,1,1.11,3.11,4.77,4.77,0,0,1-1.37,3.4,7.46,7.46,0,0,1-2.92,2,1,1,0,0,0-.58.51,8.69,8.69,0,0,0,.15,1.61c.16,1.09.38,2.16.53,3.23.19,1.36.33,2.73.54,4,.26,1.69.59,3.37.84,5.07.2,1.35.28,2.71.47,4s.49,2.93.68,4.39c0,.36.2.48.69.48,2.36,0,4.72.07,7.08.08,1.73,0,3.46,0,5.2,0,1.37,0,2.73.1,4.11.12,3.13,0,6.25.07,9.38.14,1.51,0,1.53.06,1.56,1.16S169.16,74.22,169.16,75.48Z" transform="translate(-53.72 -11.41)"/></svg>