<svg id="Layer_1" data-name="Layer 1" xmlns="http://www.w3.org/2000/svg" viewBox="0 0 243 164.76"><defs><style>.cls-1{fill:#085d34;}</style></defs><title>Tormund_green</title><path class="cls-1" d="M114.35,86.6l-4.48-4.33Q74.38,46.57,41,8.92c-.84-1-.84-1,.12-1.8,2.06-1.82,4.14-3.61,6.15-5.47.61-.56.9-.45,1.4.1C59.27,13.41,69.73,25.2,80.53,36.66c13.22,14,26.74,27.74,40.13,41.59,1,1,.74,1,1.79,0q32.91-33,64.08-67.62c2.67-3,5.32-5.94,8-8.94.43-.49.7-.56,1.22-.09q3.24,2.94,6.54,5.79c.54.46.56.76.08,1.28-9.13,10-18.12,20.23-27.41,30.12-13,13.81-26.19,27.4-39.32,41.07-1.94,2-3.94,4-5.91,6-.22.21-.42.45-.84.9A18.94,18.94,0,0,1,130.38,88q25,24.63,51,48.26a215.31,215.31,0,0,0,21.56,17c.21.15.42.28.62.45a1.24,1.24,0,0,1,.44,1.71,1.09,1.09,0,0,1-.23.29Q200,160,196.2,164.25c-.68.77-1.42.65-2.24-.23-2.77-3-5.53-6-8.34-8.93-7.36-7.73-15.43-14.71-23.16-22.06-13.46-12.76-26.73-25.5-40-38.23-1-1-.77-1-1.8,0q-25.3,25-51.57,49c-6.93,6.35-13.47,13.09-19.75,20.08-1,1.16-1.68,1.17-2.69,0q-3.54-4-7.07-8c-.82-.93-.77-1.66.22-2.34a255.72,255.72,0,0,0,31.74-26.27q21-19.93,41.84-40A9.68,9.68,0,0,1,114.35,86.6Z" transform="translate(0)"/><path class="cls-1" d="M200.94,11.27C212,25,225.57,34.49,243,38.14a.33.33,0,0,1-.06.19,101.64,101.64,0,0,1-17.45,20.25,70,70,0,0,1-29.42,15.3,75.48,75.48,0,0,1-24.52,1.75c-2.47-.21-4.94-.52-7.63-.8.3-.38.43-.57.59-.74,2.94-3.09,5.88-6.19,8.86-9.25a1.54,1.54,0,0,1,1.16-.37c8.09,1.31,15.5-.17,21.93-5.43A24.27,24.27,0,0,0,204,49.2c1.44-3.65.65-7.05-1.28-10.28a37.82,37.82,0,0,0-6-7.35c-2.3-2.26-4.66-4.45-7-6.66-.38-.36-.57-.61-.13-1.1,3.73-4.11,7.42-8.23,11.13-12.36A1.24,1.24,0,0,1,200.94,11.27Z" transform="translate(0)"/><path class="cls-1" d="M79.05,74.78c-2,.26-3.91.55-5.81.73a82.14,82.14,0,0,1-19-.25,69.19,69.19,0,0,1-26.61-9.33c-9.63-5.82-17.4-13.61-24-22.66-1.1-1.51-2.18-3-3.26-4.56-.14-.19-.25-.41-.36-.59C17.44,34.51,31,25,42.11,11.27l2.74,3c2.8,3.11,5.59,6.23,8.41,9.32.49.55.47.85-.06,1.37-3.38,3.3-6.75,6.6-10,10a24.21,24.21,0,0,0-2.85,3.9,11.27,11.27,0,0,0-.09,12.86c4.51,7.18,10.83,11.74,19.35,12.93a28.32,28.32,0,0,0,9-.23,1.34,1.34,0,0,1,1,.3q4.58,4.71,9.11,9.48A6.65,6.65,0,0,1,79.05,74.78Z" transform="translate(0)"/><path class="cls-1" d="M62.67,16.39c-1.24-1.37-2.4-2.63-3.55-3.91C56.53,9.6,54,6.71,51.37,3.84c-.44-.48-.51-.78,0-1.21,1-.79,1.83-1.76,3.16-2a4.17,4.17,0,0,1,4.12,1.19c2.11,2.24,4.16,4.53,6.18,6.86a4.36,4.36,0,0,1-.14,5.81C64.13,15.11,63.42,15.68,62.67,16.39Z" transform="translate(0)"/><path class="cls-1" d="M192.24,3.2,180.4,16.38c-1.43-1.29-3-2.3-3.22-4.38a4.3,4.3,0,0,1,1-3.39c2-2.26,4-4.53,6.06-6.74a4.32,4.32,0,0,1,6-.43C190.89,2,191.5,2.55,192.24,3.2Z" transform="translate(0)"/><polyline class="cls-1" points="73.24 164.71 121.52 116.43 169.8 164.71"/><polyline class="cls-1" points="169.35 0 121.07 48.28 72.79 0"/></svg>